<?xml version="1.0" encoding="UTF-8" standalone="no"?>
<svg
   xmlns:dc="http://purl.org/dc/elements/1.1/"
   xmlns:cc="http://creativecommons.org/ns#"
   xmlns:rdf="http://www.w3.org/1999/02/22-rdf-syntax-ns#"
   xmlns:svg="http://www.w3.org/2000/svg"
   xmlns="http://www.w3.org/2000/svg"
   xmlns:sodipodi="http://sodipodi.sourceforge.net/DTD/sodipodi-0.dtd"
   xmlns:inkscape="http://www.inkscape.org/namespaces/inkscape"
   version="1.1"
   id="Layer_1"
   viewBox="0 0 1920 1080"
   enable-background="new 0 0 439 137.29"
   xml:space="preserve"
   sodipodi:docname="Logo.svg"
   width="1920"
   height="1080"
   inkscape:version="1.0 (1.0+r73+1)"
   inkscape:export-filename="/home/x43/projects/TuringFeeds/Mockups/Logo.png"
   inkscape:export-xdpi="96"
   inkscape:export-ydpi="96"><metadata
   id="metadata42"><rdf:RDF><cc:Work
       rdf:about=""><dc:format>image/svg+xml</dc:format><dc:type
         rdf:resource="http://purl.org/dc/dcmitype/StillImage" /><dc:title /></cc:Work></rdf:RDF></metadata><defs
   id="defs40">
	
	
<filter
   inkscape:collect="always"
   style="color-interpolation-filters:sRGB"
   id="filter1027"
   x="-0.0064315246"
   width="1.012863"
   y="-0.089425154"
   height="1.1788503"><feGaussianBlur
     inkscape:collect="always"
     stdDeviation="0.88038053"
     id="feGaussianBlur1029" /></filter>



<clipPath
   clipPathUnits="userSpaceOnUse"
   id="clipPath1502"><path
     sodipodi:nodetypes="ccccccccccccccc"
     id="path1504"
     d="m 3407.3676,411.52814 77.6788,75.13717 c 45.0497,6.98348 76.7234,4.93289 100.7739,-2.26666 -21.3185,8.11594 -42.2706,16.6259 -67.3108,20.74148 34.6679,19.1854 62.965,20.50791 88.9905,23.70705 l 55.209,-20.70337 c -12.1697,11.18625 -17.9437,15.96819 -37.9562,24.15391 76.949,6.92039 131.6929,-53.90441 124.2201,-124.22012 -5.3931,12.29427 -14.5001,28.30235 -24.1539,37.9562 l 24.154,-58.65958 c 2.7939,-32.24211 -6.1131,-61.66342 -20.7034,-89.71452 l -20.7034,69.01118 V 263.15413 l -75.9123,-75.9123 c 70.6289,274.63412 53.0767,294.95565 -224.2863,224.28631 z"
     style="fill:#ff00ff;fill-opacity:1;stroke:none;stroke-width:0.975962px;stroke-linecap:butt;stroke-linejoin:miter;stroke-opacity:1" /></clipPath><filter
   inkscape:collect="always"
   style="color-interpolation-filters:sRGB"
   id="filter1714"
   x="-0.016414053"
   width="1.0328281"
   y="-0.018242405"
   height="1.0364848"><feGaussianBlur
     inkscape:collect="always"
     stdDeviation="5.3673934"
     id="feGaussianBlur1716" /></filter>

</defs><sodipodi:namedview
   inkscape:document-rotation="0"
   pagecolor="#ffffff"
   bordercolor="#666666"
   borderopacity="1"
   objecttolerance="10"
   gridtolerance="10"
   guidetolerance="10"
   inkscape:pageopacity="0"
   inkscape:pageshadow="2"
   inkscape:window-width="1920"
   inkscape:window-height="1048"
   id="namedview38"
   showgrid="false"
   fit-margin-top="0"
   fit-margin-left="0"
   fit-margin-right="0"
   fit-margin-bottom="0"
   inkscape:snap-bbox="true"
   inkscape:bbox-nodes="true"
   inkscape:snap-page="true"
   inkscape:zoom="0.5"
   inkscape:cx="1066.849"
   inkscape:cy="639.66582"
   inkscape:window-x="1366"
   inkscape:window-y="0"
   inkscape:window-maximized="1"
   inkscape:current-layer="Layer_1"
   showguides="false"
   inkscape:snap-intersection-paths="true"><inkscape:grid
     type="xygrid"
     id="grid866"
     originx="-79.000001"
     originy="-19.830885" /></sodipodi:namedview>

<g
   inkscape:export-ydpi="96"
   inkscape:export-xdpi="96"
   id="g922"><rect
     ry="0"
     y="1.1368684e-13"
     x="4e-07"
     height="1080"
     width="1920"
     id="rect993"
     style="fill:#d45500;fill-opacity:1;stroke:none;stroke-width:120.513;stroke-linecap:round;stroke-linejoin:round;stroke-miterlimit:4;stroke-dasharray:none;stroke-dashoffset:0;stroke-opacity:1" /><g
     id="g905"
     transform="translate(210.20013)"><g
       transform="translate(11.350844)"
       id="g890"><text
         xml:space="preserve"
         style="font-style:normal;font-weight:normal;font-size:33.0921px;line-height:1.25;font-family:sans-serif;letter-spacing:0px;word-spacing:0px;fill:#000000;fill-opacity:1;stroke:none;stroke-width:0.689418;filter:url(#filter1027)"
         x="0"
         y="173.84013"
         id="text1021"
         transform="matrix(5.0087374,0,0,5.0087374,139.94453,136.83081)"><tspan
           sodipodi:role="line"
           id="tspan1019"
           x="0"
           y="173.84013"
           style="font-style:normal;font-variant:normal;font-weight:bold;font-stretch:normal;font-family:Expansiva;-inkscape-font-specification:'Expansiva Bold';fill:#000000;fill-opacity:1;stroke-width:0.689418">TURING·</tspan></text><text
         id="text965"
         y="1007.5504"
         x="139.94453"
         style="font-style:normal;font-weight:normal;font-size:165.75px;line-height:1.25;font-family:sans-serif;letter-spacing:0px;word-spacing:0px;fill:#552200;fill-opacity:1;stroke:none;stroke-width:3.45311"
         xml:space="preserve"><tspan
           style="font-style:normal;font-variant:normal;font-weight:bold;font-stretch:normal;font-family:Expansiva;-inkscape-font-specification:'Expansiva Bold';fill:#552200;fill-opacity:1;stroke-width:3.45311"
           y="1007.5504"
           x="139.94453"
           id="tspan963"
           sodipodi:role="line"><tspan
   id="tspan967"
   style="fill:#d45500;fill-opacity:1;stroke-width:3.45311">TURING·</tspan>DB</tspan></text></g><g
       id="g1724"
       transform="translate(-242.95585,37.482109)"><g
         style="fill:#000000;filter:url(#filter1714)"
         id="g1712"><path
           style="fill:#000000;fill-opacity:1;stroke:none;stroke-width:1.76359px;stroke-linecap:butt;stroke-linejoin:miter;stroke-opacity:1"
           d="M 1385.1556,37.266212 V 310.62341 c -51.1385,86.90829 -116.723,131.43479 -185.1775,167.5415 57.8207,-11.68921 119.9893,-49.63604 185.1775,-105.81569 -61.6876,186.11687 -113.8595,221.68666 -282.1752,290.99315 L 1252.8859,619.2525 C 1179.1973,699.11384 1095.5696,750.57595 993,742.59597 V 496.16911 c 108.8175,-35.54316 239.5268,-186.43196 392.1556,-458.902898 z"
           id="path1708"
           sodipodi:nodetypes="ccccccccc" /><path
           sodipodi:nodetypes="ccccccccc"
           id="path1710"
           d="M 600.35587,37.266212 V 310.62341 C 651.4943,397.5317 717.07886,442.0582 785.53332,478.16491 727.71263,466.4757 665.54397,428.52887 600.35587,372.34922 662.04341,558.46609 714.21531,594.03588 882.53103,663.34237 L 732.62548,619.2525 C 806.31411,699.11384 890.43039,750.57595 993,742.59597 V 496.16911 C 884.1825,460.62595 752.98459,309.73715 600.35587,37.266212 Z"
           style="fill:#000000;fill-opacity:1;stroke:none;stroke-width:1.76359px;stroke-linecap:butt;stroke-linejoin:miter;stroke-opacity:1" /></g><g
         id="g1706"><path
           sodipodi:nodetypes="ccccccccc"
           id="path1508"
           d="M 1385.1556,37.266212 V 310.62341 c -51.1385,86.90829 -116.723,131.43479 -185.1775,167.5415 57.8207,-11.68921 119.9893,-49.63604 185.1775,-105.81569 -61.6876,186.11687 -113.8595,221.68666 -282.1752,290.99315 L 1252.8859,619.2525 C 1179.1973,699.11384 1095.5696,750.57595 993,742.59597 V 496.16911 c 108.8175,-35.54316 239.5268,-186.43196 392.1556,-458.902898 z"
           style="fill:#552200;fill-opacity:1;stroke:none;stroke-width:1.76359px;stroke-linecap:butt;stroke-linejoin:miter;stroke-opacity:1" /><path
           style="fill:#d45500;fill-opacity:1;stroke:none;stroke-width:1.76359px;stroke-linecap:butt;stroke-linejoin:miter;stroke-opacity:1"
           d="M 600.35587,37.266212 V 310.62341 C 651.4943,397.5317 717.07886,442.0582 785.53332,478.16491 727.71263,466.4757 665.54397,428.52887 600.35587,372.34922 662.04341,558.46609 714.21531,594.03588 882.53103,663.34237 L 732.62548,619.2525 C 806.31411,699.11384 890.43039,750.57595 993,742.59597 V 496.16911 C 884.1825,460.62595 752.98459,309.73715 600.35587,37.266212 Z"
           id="path1506"
           sodipodi:nodetypes="ccccccccc" /></g></g></g></g></svg>
